<svg id="visual" viewBox="0 0 900 600" width="900" height="600" xmlns="http://www.w3.org/2000/svg" xmlns:xlink="http://www.w3.org/1999/xlink" version="1.1"><rect x="0" y="0" width="900" height="600" fill="#002233"></rect><path d="M0 431L21.5 442.2C43 453.3 86 475.7 128.8 483.3C171.7 491 214.3 484 257.2 478.3C300 472.7 343 468.3 385.8 470.2C428.7 472 471.3 480 514.2 487.7C557 495.3 600 502.7 642.8 491.5C685.7 480.3 728.3 450.7 771.2 452C814 453.3 857 485.7 878.5 501.8L900 518L900 601L878.5 601C857 601 814 601 771.2 601C728.3 601 685.7 601 642.8 601C600 601 557 601 514.2 601C471.3 601 428.7 601 385.8 601C343 601 300 601 257.2 601C214.3 601 171.7 601 128.8 601C86 601 43 601 21.5 601L0 601Z" fill="#0066FF" stroke-linecap="round" stroke-linejoin="miter"></path></svg>