<svg id="visual" viewBox="0 0 900 600" width="900" height="600" xmlns="http://www.w3.org/2000/svg" xmlns:xlink="http://www.w3.org/1999/xlink" version="1.1"><rect x="0" y="0" width="900" height="600" fill="#0066ff"></rect><path d="M0 400L25 402C50 404 100 408 150 395.8C200 383.7 250 355.3 300 334.8C350 314.3 400 301.7 450 318.5C500 335.3 550 381.7 600 394.5C650 407.3 700 386.7 750 374.7C800 362.7 850 359.3 875 357.7L900 356L900 601L875 601C850 601 800 601 750 601C700 601 650 601 600 601C550 601 500 601 450 601C400 601 350 601 300 601C250 601 200 601 150 601C100 601 50 601 25 601L0 601Z" fill="#002233" stroke-linecap="round" stroke-linejoin="miter"></path></svg>